<svg id="Layer_1" data-name="Layer 1" xmlns="http://www.w3.org/2000/svg" viewBox="0 0 361.05 150.34"><defs><style>.cls-1,.cls-4{fill:#ffcf02;}.cls-2{fill:#0d172c;}.cls-3,.cls-4{font-size:29px;font-family:A-SpaceBlackDemo, A-Space Black Demo;font-weight:800;}.cls-3{fill:#ff0469;}</style></defs><title>signature for web</title><path class="cls-1" d="M289.8,176.81S224,206.62,238.09,291.49c0,0,43.55-31.35,89.55.2,0,0-13.13-41.35-67.9-27.16C259.74,264.53,250.14,226.69,289.8,176.81Z" transform="translate(-208.38 -176.81)"/><path class="cls-1" d="M293,178.81s-21.53,25.71-24.71,57.35c0,0,35.46-43.71,53,15.18l5.17,22.07S330.14,204.55,293,178.81Z" transform="translate(-208.38 -176.81)"/><path class="cls-1" d="M330,260.86s2,15.82-4.43,29.44c0,0,8.12,5,11.55,12.28l3.78,24.57,9-30.81S348,273.69,330,260.86Z" transform="translate(-208.38 -176.81)"/><path class="cls-1" d="M232.3,262.45a102.2,102.2,0,0,0,2.08,29.75,50.62,50.62,0,0,0-13.74,11l-6,23.85-6.21-31.3S213.33,271.53,232.3,262.45Z" transform="translate(-208.38 -176.81)"/><path class="cls-2" d="M306.11,212s-10.17-5.18-18.39-.9c0,0,2.15-8.56,8-13.92C295.76,197.13,300.75,200,306.11,212Z" transform="translate(-208.38 -176.81)"/><text class="cls-3" transform="translate(153.83 49.3)">LU ALFARO</text><text class="cls-4" transform="translate(153.83 91.48)">GRAPHIC</text><text class="cls-4" transform="translate(153.83 117.94)">DESIGNER</text></svg>